<svg xmlns="http://www.w3.org/2000/svg" viewBox="0 0 713.77 78.76" style="enable-background:new 0 0 713.77 78.76;" xml:space="preserve" width="300px">
<style type="text/css">
	.logo-1{fill:none;stroke:#E92E00;stroke-width:5;stroke-miterlimit:10;}
	.logo2{fill:none;}
	.logo-3{fill:#FFFFFF;}
</style>
<g>
	<path class="logo-1" d="M43.9,33.74"/>
</g>
<g>
	<path class="logo2" d="M105.96,31.71v-1.48c0-0.13,0.02-0.25,0.02-0.38h-6.18v1.86H105.96z"/>
</g>
<g>
	<g>
		<path class="logo-3" d="M170.96,0.11c-0.4,2.05-1.37,3.9-2.49,5.65c-1.16,1.73-2.57,3.28-4.12,4.69c-1.54,1.43-3.27,2.63-5.06,3.7
			c-0.89,0.56-1.82,1.02-2.75,1.52c-0.47,0.24-0.94,0.45-1.42,0.67c-0.47,0.22-0.95,0.45-1.43,0.64c-3.87,1.57-7.91,2.65-11.98,3.43
			l-1.53,0.29c-0.51,0.08-1.02,0.15-1.53,0.22c-1.02,0.13-2.05,0.29-3.08,0.37c-1.03,0.09-2.05,0.21-3.08,0.27l-3.08,0.17
			c-4.1,0.15-8.22,0.17-12.29-0.15c-2.05-0.09-4.07-0.32-6.11-0.49c-0.52-0.05-0.99-0.08-1.46-0.11l-1.41-0.09
			c-0.94-0.05-1.88-0.14-2.83-0.16c-7.56-0.22-15.18,0.67-22.63,2.45c-7.5,1.63-14.81,4.26-21.97,7.29c-0.9,0.38-1.8,0.74-2.69,1.14
			l-2.66,1.21c-1.79,0.78-3.52,1.69-5.28,2.54c-3.48,1.79-6.95,3.61-10.37,5.55c-6.82,3.9-13.54,8.08-20.08,12.56
			c-6.58,4.44-13,9.15-19.31,14.07L0,67.23c5.73-5.59,11.85-10.74,18.15-15.66c3.15-2.46,6.38-4.81,9.65-7.12
			c1.65-1.12,3.28-2.28,4.96-3.36l2.51-1.64l2.54-1.59c6.78-4.24,13.84-8.04,21.15-11.32c7.31-3.26,14.87-6.02,22.69-7.82
			c7.81-1.78,15.86-2.68,23.88-2.3c2,0.14,4,0.34,5.99,0.54c1.98,0.21,3.95,0.49,5.94,0.62l2.98,0.25l2.98,0.15l1.49,0.07l1.49,0.03
			c0.99,0.01,1.99,0.05,2.98,0.04c7.94-0.06,15.96-0.87,23.5-3.43c0.48-0.15,0.93-0.33,1.4-0.51c0.46-0.18,0.93-0.35,1.38-0.54
			c0.9-0.41,1.82-0.79,2.69-1.26c1.77-0.9,3.46-1.93,5.03-3.15c1.56-1.21,3.02-2.57,4.25-4.11c1.22-1.54,2.3-3.25,2.88-5.1
			L170.96,0.11z"/>
	</g>
	<g>
		<path class="logo-3" d="M2.21,75.29c13.97,0.6,27.88,0.87,41.75,0.69c1.73-0.03,3.47-0.07,5.2-0.13c1.73-0.04,3.46-0.08,5.19-0.14
			c3.46-0.11,6.91-0.28,10.36-0.52c6.9-0.4,13.78-0.99,20.6-1.89c3.42-0.42,6.82-0.9,10.2-1.48c3.38-0.58,6.74-1.29,10.08-2.02
			c6.68-1.48,13.25-3.43,19.59-5.9c6.31-2.52,12.44-5.58,17.9-9.63c5.51-3.98,10.32-8.99,14.04-14.9l0.31,0.16
			c-3.16,6.26-7.79,11.72-13.2,16.15c-2.71,2.22-5.6,4.22-8.62,5.98c-3.02,1.76-6.16,3.33-9.37,4.72c-3.21,1.4-6.49,2.63-9.81,3.7
			c-3.33,1.08-6.69,2.04-10.09,2.86c-3.4,0.82-6.82,1.54-10.26,2.17c-3.44,0.61-6.9,1.14-10.36,1.59
			c-13.87,1.72-27.87,2.21-41.83,1.98c-6.98-0.13-13.96-0.45-20.92-0.95c-6.96-0.51-13.91-1.17-20.84-2.12L2.21,75.29z"/>
	</g>
</g>
<g>
	<g>
		<g>
			<path class="logo-3" d="M106.81,50.99c0.02-0.34-0.17-0.66-0.47-0.82c-0.3-0.16-0.67-0.14-0.95,0.05
				c-12.63,8.94-22.18,10.55-27.69,10.35c-0.36,0-0.72,0.21-0.86,0.56c-0.14,0.35-0.05,0.75,0.23,0.99
				c4.41,3.89,10.18,7.34,17.15,10.27c0.11,0.05,0.23,0.07,0.35,0.07c0.18,0,0.37-0.05,0.52-0.16
				C102.17,67.32,106.44,59.55,106.81,50.99z"/>
		</g>
		<g>
			<path class="logo-3" d="M87.77,56.19c-0.2,0.32-0.17,0.72,0.06,1.01c0.17,0.22,0.44,0.34,0.7,0.34c0.1,0,0.19-0.02,0.29-0.04
				c5.6-1.84,11.49-5.05,17.53-9.55c0.25-0.18,0.38-0.49,0.35-0.79c-0.83-8.54-5.49-16.09-12.79-20.69
				c-0.29-0.18-0.66-0.18-0.95-0.01c-0.29,0.18-0.46,0.5-0.43,0.84C94.03,42.47,90.77,51.38,87.77,56.19z"/>
		</g>
		<g>
			<path class="logo-3" d="M66.03,26.85c14.03,6.3,20.2,13.55,22.91,18.53c0.16,0.29,0.46,0.47,0.79,0.47c0.04,0,0.08,0,0.13-0.01
				c0.37-0.05,0.67-0.34,0.75-0.7c1.19-5.72,1.32-12.38,0.41-19.8c-0.04-0.31-0.23-0.57-0.52-0.7c-3.64-1.64-7.66-2.51-11.64-2.51
				c-4.44,0-8.89,1.08-12.86,3.12c-0.3,0.16-0.49,0.47-0.48,0.81C65.51,26.41,65.71,26.71,66.03,26.85z"/>
		</g>
		<g>
			<path class="logo-3" d="M50.97,48.58c-0.02,0.34,0.16,0.66,0.47,0.82c0.13,0.07,0.28,0.11,0.43,0.11c0.18,0,0.37-0.05,0.52-0.16
				C65.02,40.4,74.6,38.86,80.08,38.99c0.36,0.01,0.72-0.22,0.86-0.56c0.14-0.35,0.04-0.74-0.24-0.99
				c-4.41-3.89-10.18-7.34-17.15-10.26c-0.28-0.12-0.62-0.09-0.87,0.1C55.61,32.25,51.34,40.02,50.97,48.58z"/>
		</g>
		<g>
			<path class="logo-3" d="M70.01,43.38c0.2-0.32,0.18-0.73-0.06-1.02c-0.23-0.29-0.63-0.41-0.99-0.29c-5.6,1.84-11.5,5.06-17.54,9.56
				c-0.25,0.18-0.38,0.49-0.35,0.79c0.83,8.55,5.49,16.09,12.79,20.69c0.15,0.1,0.32,0.14,0.48,0.14c0.01,0,0.02,0,0.03,0
				c0.5,0,0.89-0.4,0.89-0.89c0-0.1-0.02-0.2-0.05-0.29C63.78,57.02,67.03,48.17,70.01,43.38z"/>
		</g>
		<g>
			<path class="logo-3" d="M91.75,72.72c-14.03-6.3-20.2-13.56-22.91-18.53c-0.18-0.33-0.55-0.5-0.92-0.46
				c-0.37,0.05-0.67,0.34-0.75,0.7c-1.19,5.72-1.33,12.38-0.41,19.8c0.04,0.31,0.23,0.58,0.52,0.7c3.64,1.64,7.66,2.5,11.65,2.5
				c4.45,0,8.89-1.08,12.86-3.12c0.3-0.16,0.49-0.48,0.49-0.82C92.27,73.16,92.07,72.86,91.75,72.72z"/>
		</g>
	</g>
</g>
<g>
	<path class="logo-3" d="M249.22,14.96c4.59,3.43,7.53,8.05,8.82,13.88h-11.98c-1.13-2.59-2.93-4.65-5.38-6.19
		c-2.46-1.54-5.36-2.31-8.7-2.31c-3.29,0-6.21,0.76-8.74,2.27c-2.54,1.51-4.51,3.67-5.91,6.47c-1.4,2.81-2.1,6.1-2.1,9.87
		c0,5.99,1.6,10.66,4.82,14c3.21,3.35,7.59,5.02,13.15,5.02c4.1,0,7.62-1.21,10.56-3.64c2.94-2.43,4.84-5.8,5.71-10.12h-19.34v-8.17
		h28.89v11.01c-0.81,3.78-2.39,7.26-4.73,10.44c-2.35,3.18-5.42,5.73-9.23,7.65c-3.8,1.92-8.16,2.87-13.07,2.87
		c-5.61,0-10.56-1.23-14.85-3.68c-4.29-2.45-7.61-5.88-9.95-10.28c-2.35-4.4-3.52-9.43-3.52-15.09s1.17-10.7,3.52-15.09
		s5.65-7.84,9.91-10.32c4.26-2.48,9.2-3.72,14.81-3.72C238.86,9.82,244.64,11.53,249.22,14.96z"/>
	<path class="logo-3" d="M279.01,10.38v57.14H267.6V10.38H279.01z"/>
	<path class="logo-3" d="M300.78,19.45v14.81h20.23V43h-20.23v15.38h22.66v9.15h-34.07V10.38h34.07v9.06H300.78z"/>
	<path class="logo-3" d="M367.3,10.38v9.06h-24.04v15.3h19.26v8.74h-19.26v24.04h-11.41V10.38H367.3z"/>
	<path class="logo-3" d="M410.44,10.38v9.06H386.4v15.3h19.26v8.74H386.4v24.04h-11.41V10.38H410.44z"/>
	<path class="logo-3" d="M429.54,19.45v14.81h20.23V43h-20.23v15.38h22.66v9.15h-34.07V10.38h34.07v9.06H429.54z"/>
	<path class="logo-3" d="M524.15,10.22v1.62c-2.7,0.65-4.83,2.99-6.39,7.04l-19.02,49.04h-0.65h-0.65l-19.75-50.91
		c-1.29-3.34-3.16-5.07-5.58-5.18v-1.62c2.16,0.16,5.04,0.24,8.66,0.24c4.64,0,8.09-0.08,10.36-0.24v1.62
		c-2.05,0.11-3.52,0.36-4.41,0.77c-0.89,0.4-1.34,1.15-1.34,2.23c0,0.92,0.32,2.19,0.97,3.8L501,57.57l13.19-34.23
		c1.08-2.91,1.62-5.13,1.62-6.64c0-1.67-0.58-2.89-1.74-3.64c-1.16-0.75-2.93-1.16-5.3-1.21v-1.62c3.08,0.16,6.18,0.24,9.31,0.24
		C520.51,10.46,522.53,10.38,524.15,10.22z"/>
	<path class="logo-3" d="M547.62,11.84c-1.94,0.11-3.36,0.32-4.25,0.65c-0.89,0.32-1.5,0.94-1.82,1.86c-0.32,0.92-0.49,2.4-0.49,4.45
		v40.14c0,2.05,0.16,3.54,0.49,4.45c0.32,0.92,0.93,1.54,1.82,1.86c0.89,0.32,2.31,0.54,4.25,0.65v1.62
		c-2.48-0.16-5.91-0.24-10.28-0.24c-4.64,0-8.09,0.08-10.36,0.24V65.9c1.94-0.11,3.36-0.32,4.25-0.65c0.89-0.32,1.5-0.94,1.82-1.86
		c0.32-0.92,0.49-2.4,0.49-4.45V18.8c0-2.05-0.16-3.53-0.49-4.45c-0.32-0.92-0.93-1.54-1.82-1.86c-0.89-0.32-2.31-0.54-4.25-0.65
		v-1.62c2.27,0.16,5.72,0.24,10.36,0.24c4.32,0,7.74-0.08,10.28-0.24V11.84z"/>
	<path class="logo-3" d="M597.96,17.38c4.75,4.77,7.12,11.72,7.12,20.84c0,5.88-1.16,11.04-3.48,15.46
		c-2.32,4.42-5.68,7.84-10.08,10.24c-4.4,2.4-9.64,3.6-15.74,3.6l-4.69-0.08c-3.02-0.11-5.23-0.16-6.64-0.16
		c-4.42,0-7.77,0.08-10.04,0.24V65.9c1.94-0.11,3.36-0.32,4.25-0.65c0.89-0.32,1.5-0.94,1.82-1.86c0.32-0.92,0.49-2.4,0.49-4.45
		V18.8c0-2.05-0.16-3.53-0.49-4.45c-0.32-0.92-0.93-1.54-1.82-1.86c-0.89-0.32-2.31-0.54-4.25-0.65v-1.62
		c1.89,0.16,4.5,0.24,7.85,0.24l6.88-0.08c3.67-0.11,6.12-0.16,7.37-0.16C586.06,10.22,593.21,12.61,597.96,17.38z M570.72,12.24
		c-0.84,0.38-1.42,1.05-1.74,2.02c-0.32,0.97-0.49,2.43-0.49,4.37v40.47c0,1.94,0.16,3.4,0.49,4.37c0.32,0.97,0.9,1.65,1.74,2.02
		c0.84,0.38,2.12,0.57,3.84,0.57c5.72,0,10.22-1.04,13.52-3.12c3.29-2.08,5.6-5.11,6.92-9.11c1.32-3.99,1.98-9.09,1.98-15.3
		c0-6.2-0.73-11.26-2.18-15.18c-1.46-3.91-3.82-6.84-7.08-8.78c-3.26-1.94-7.68-2.91-13.23-2.91
		C572.82,11.68,571.56,11.87,570.72,12.24z"/>
	<path class="logo-3" d="M654.21,67.52c-3.67-0.16-9.85-0.24-18.53-0.24c-10.36,0-18.18,0.08-23.47,0.24V65.9
		c1.94-0.11,3.36-0.32,4.25-0.65c0.89-0.32,1.5-0.94,1.82-1.86c0.32-0.92,0.49-2.4,0.49-4.45V18.8c0-2.05-0.16-3.53-0.49-4.45
		c-0.32-0.92-0.93-1.54-1.82-1.86c-0.89-0.32-2.31-0.54-4.25-0.65v-1.62c5.29,0.16,13.11,0.24,23.47,0.24
		c7.93,0,13.57-0.08,16.92-0.24c-0.38,3.56-0.57,6.75-0.57,9.55c0,2.1,0.08,3.78,0.24,5.02h-1.86c-0.38-3.51-0.86-6.11-1.46-7.81
		c-0.59-1.7-1.59-2.94-2.99-3.72c-1.4-0.78-3.53-1.17-6.39-1.17h-6.72c-1.94,0-3.36,0.15-4.25,0.45c-0.89,0.3-1.5,0.9-1.82,1.82
		c-0.32,0.92-0.49,2.4-0.49,4.45v19.1h5.34c1.89,0,3.34-0.45,4.37-1.34c1.02-0.89,1.71-1.94,2.06-3.16
		c0.35-1.21,0.63-2.74,0.85-4.57l0.24-1.62h1.86c-0.16,2.27-0.24,4.8-0.24,7.61v3.88c0,2.75,0.16,6.58,0.49,11.49h-1.86
		c-0.05-0.38-0.22-1.69-0.49-3.93c-0.27-2.24-1.01-3.92-2.23-5.06c-1.21-1.13-2.9-1.7-5.06-1.7h-5.34v19.42
		c0,2.05,0.16,3.54,0.49,4.45c0.32,0.92,0.93,1.53,1.82,1.82c0.89,0.3,2.31,0.45,4.25,0.45h5.91c3.34,0,5.89-0.45,7.65-1.34
		c1.75-0.89,3.04-2.32,3.84-4.29c0.81-1.97,1.4-4.87,1.78-8.7h1.86c-0.16,1.46-0.24,3.4-0.24,5.83
		C653.64,60.24,653.83,63.69,654.21,67.52z"/>
	<path class="logo-3" d="M701.59,12.57c3.86,2.32,6.85,5.68,8.98,10.08c2.13,4.4,3.2,9.65,3.2,15.74c0,5.94-1.09,11.2-3.28,15.78
		s-5.23,8.15-9.15,10.68c-3.91,2.54-8.35,3.8-13.31,3.8c-5.13,0-9.62-1.16-13.48-3.48c-3.86-2.32-6.85-5.68-8.98-10.08
		c-2.13-4.4-3.2-9.64-3.2-15.74c0-5.93,1.09-11.2,3.28-15.78s5.23-8.15,9.15-10.68c3.91-2.54,8.35-3.8,13.31-3.8
		C693.24,9.09,697.74,10.25,701.59,12.57z M678.69,14.15c-2.62,2.4-4.64,5.76-6.07,10.08c-1.43,4.32-2.14,9.25-2.14,14.81
		c0,5.61,0.79,10.55,2.39,14.81c1.59,4.26,3.74,7.55,6.43,9.87c2.7,2.32,5.72,3.48,9.06,3.48c3.45,0,6.49-1.2,9.11-3.6
		c2.62-2.4,4.64-5.76,6.07-10.08c1.43-4.32,2.14-9.25,2.14-14.81c0-5.61-0.8-10.55-2.39-14.81c-1.59-4.26-3.74-7.55-6.43-9.87
		c-2.7-2.32-5.72-3.48-9.06-3.48C684.34,10.55,681.31,11.75,678.69,14.15z"/>
</g>
</svg>
